<mxfile host="app.diagrams.net" modified="2023-07-26T22:36:57.538Z" agent="Mozilla/5.0 (Windows NT 10.0; Win64; x64) AppleWebKit/537.36 (KHTML, like Gecko) Chrome/115.0.0.0 Safari/537.36 Edg/115.0.1901.183" etag="TAIGuyZjZwsZuYcqQ9mx" version="21.6.5" type="github">
  <diagram id="C5RBs43oDa-KdzZeNtuy" name="Page-1">
    <mxGraphModel dx="564" dy="361" grid="1" gridSize="10" guides="1" tooltips="1" connect="1" arrows="1" fold="1" page="1" pageScale="1" pageWidth="827" pageHeight="1169" math="0" shadow="0">
      <root>
        <mxCell id="WIyWlLk6GJQsqaUBKTNV-0" />
        <mxCell id="WIyWlLk6GJQsqaUBKTNV-1" parent="WIyWlLk6GJQsqaUBKTNV-0" />
        <mxCell id="WIyWlLk6GJQsqaUBKTNV-3" value="Auth0 Apps" style="rounded=1;whiteSpace=wrap;html=1;fontSize=12;glass=0;strokeWidth=1;shadow=0;" parent="WIyWlLk6GJQsqaUBKTNV-1" vertex="1">
          <mxGeometry x="40" y="40" width="240" height="80" as="geometry" />
        </mxCell>
        <mxCell id="-jVJhmQ9KD3HRLA69ViO-0" value="Auth0 Logs" style="rounded=1;whiteSpace=wrap;html=1;fontSize=12;glass=0;strokeWidth=1;shadow=0;" vertex="1" parent="WIyWlLk6GJQsqaUBKTNV-1">
          <mxGeometry x="40" y="160" width="90" height="40" as="geometry" />
        </mxCell>
        <mxCell id="-jVJhmQ9KD3HRLA69ViO-1" value="Auth0 Logstreams" style="rounded=1;whiteSpace=wrap;html=1;fontSize=12;glass=0;strokeWidth=1;shadow=0;" vertex="1" parent="WIyWlLk6GJQsqaUBKTNV-1">
          <mxGeometry x="190" y="160" width="90" height="80" as="geometry" />
        </mxCell>
        <mxCell id="-jVJhmQ9KD3HRLA69ViO-2" value="Auth0 Dashboard" style="rounded=1;whiteSpace=wrap;html=1;fontSize=12;glass=0;strokeWidth=1;shadow=0;" vertex="1" parent="WIyWlLk6GJQsqaUBKTNV-1">
          <mxGeometry x="40" y="240" width="90" height="40" as="geometry" />
        </mxCell>
        <mxCell id="-jVJhmQ9KD3HRLA69ViO-3" value="" style="endArrow=classic;html=1;rounded=0;exitX=0.163;exitY=1.05;exitDx=0;exitDy=0;exitPerimeter=0;entryX=0.422;entryY=-0.1;entryDx=0;entryDy=0;entryPerimeter=0;" edge="1" parent="WIyWlLk6GJQsqaUBKTNV-1" source="WIyWlLk6GJQsqaUBKTNV-3" target="-jVJhmQ9KD3HRLA69ViO-0">
          <mxGeometry width="50" height="50" relative="1" as="geometry">
            <mxPoint x="390" y="300" as="sourcePoint" />
            <mxPoint x="390" y="340" as="targetPoint" />
          </mxGeometry>
        </mxCell>
        <mxCell id="-jVJhmQ9KD3HRLA69ViO-4" value="" style="endArrow=classic;html=1;rounded=0;exitX=0.433;exitY=1.05;exitDx=0;exitDy=0;exitPerimeter=0;entryX=0.444;entryY=0;entryDx=0;entryDy=0;entryPerimeter=0;" edge="1" parent="WIyWlLk6GJQsqaUBKTNV-1" source="-jVJhmQ9KD3HRLA69ViO-0" target="-jVJhmQ9KD3HRLA69ViO-2">
          <mxGeometry width="50" height="50" relative="1" as="geometry">
            <mxPoint x="89" y="134" as="sourcePoint" />
            <mxPoint x="88" y="166" as="targetPoint" />
          </mxGeometry>
        </mxCell>
        <mxCell id="-jVJhmQ9KD3HRLA69ViO-5" value="" style="endArrow=classic;html=1;rounded=0;entryX=0.553;entryY=-0.01;entryDx=0;entryDy=0;exitX=0.831;exitY=1.05;exitDx=0;exitDy=0;exitPerimeter=0;entryPerimeter=0;" edge="1" parent="WIyWlLk6GJQsqaUBKTNV-1" source="WIyWlLk6GJQsqaUBKTNV-3" target="-jVJhmQ9KD3HRLA69ViO-1">
          <mxGeometry width="50" height="50" relative="1" as="geometry">
            <mxPoint x="240" y="130" as="sourcePoint" />
            <mxPoint x="238" y="150" as="targetPoint" />
          </mxGeometry>
        </mxCell>
        <mxCell id="-jVJhmQ9KD3HRLA69ViO-7" value="" style="endArrow=classic;html=1;rounded=0;exitX=1;exitY=0.5;exitDx=0;exitDy=0;" edge="1" parent="WIyWlLk6GJQsqaUBKTNV-1" source="-jVJhmQ9KD3HRLA69ViO-1">
          <mxGeometry width="50" height="50" relative="1" as="geometry">
            <mxPoint x="290" y="240" as="sourcePoint" />
            <mxPoint x="400" y="200" as="targetPoint" />
          </mxGeometry>
        </mxCell>
      </root>
    </mxGraphModel>
  </diagram>
</mxfile>
